<svg xmlns="http://www.w3.org/2000/svg" xmlns:xlink="http://www.w3.org/1999/xlink" width="1440" height="652"><defs><path id="a" d="M0 0h1440v652c-240-25.126-480-37.688-720-37.688S240 626.874 0 652V0z"/><linearGradient id="c" x1="98.088%" x2="70.19%" y1="8.875%" y2="48.914%"><stop offset="0%" stop-color="#84E0EF"/><stop offset="100%"/></linearGradient></defs><g fill="none" fill-rule="evenodd"><mask id="b" fill="#fff"><use xlink:href="#a"/></mask><use fill="#000038" fill-rule="nonzero" xlink:href="#a"/><g fill-rule="nonzero" mask="url(#b)"><path fill="url(#c)" d="M0 1152.426c3.234-223.003 65.615-358.124 187.14-405.363 61.738-24 121.536-13.743 282.114-101.583C576.306 586.92 659.888 505.094 720 400v844.707H0v-92.281z" opacity=".223" transform="matrix(-1 0 0 1 720 -24)"/><path fill="#4DBDDA" d="M720 1038.426c-3.234-229.67-65.615-368.124-187.14-415.363-61.738-24-121.536-13.743-282.114-101.583C143.694 462.92 60.112 381.094 0 276v844.707h720v-82.281z" opacity=".154"/><path fill="#4DBDDA" d="M720 928.426c-3.234-223.003-65.615-358.124-187.14-405.364-61.738-23.998-121.536-13.742-282.114-101.582C143.694 362.92 60.112 281.094 0 176v844.707h720v-92.281z" opacity=".103"/><path fill="#4DBDDA" d="M720 828.426c-3.234-223.003-65.615-358.124-187.14-405.364-61.738-23.998-121.536-13.742-282.114-101.582C143.694 262.92 60.112 177.76 0 66v854.707h720v-92.281z" opacity=".069"/><path fill="#4DBDDA" d="M720 728.426c-3.234-223.003-65.615-358.124-187.14-405.364-61.738-23.998-121.536-13.742-282.114-101.582C143.694 162.92 60.112 81.094 0-24v844.707h720v-92.281z" opacity=".035"/></g><g fill-rule="nonzero" mask="url(#b)"><path fill="url(#c)" d="M0 1152.426c3.234-223.003 65.615-358.124 187.14-405.363 61.738-24 121.536-13.743 282.114-101.583C576.306 586.92 659.888 505.094 720 400v844.707H0v-92.281z" opacity=".223" transform="translate(720 -24)"/><path fill="#4DBDDA" d="M720 1038.426c3.234-229.67 65.615-368.124 187.14-415.363 61.738-24 121.536-13.743 282.114-101.583C1296.306 462.92 1379.888 381.094 1440 276v844.707H720v-82.281z" opacity=".154"/><path fill="#4DBDDA" d="M720 928.426c3.234-223.003 65.615-358.124 187.14-405.364 61.738-23.998 121.536-13.742 282.114-101.582C1296.306 362.92 1379.888 281.094 1440 176v844.707H720v-92.281z" opacity=".103"/><path fill="#4DBDDA" d="M720 828.426c3.234-223.003 65.615-358.124 187.14-405.364 61.738-23.998 121.536-13.742 282.114-101.582C1296.306 262.92 1379.888 177.76 1440 66v854.707H720v-92.281z" opacity=".069"/><path fill="#4DBDDA" d="M720 728.426c3.234-223.003 65.615-358.124 187.14-405.364 61.738-23.998 121.536-13.742 282.114-101.582C1296.306 162.92 1379.888 81.094 1440-24v844.707H720v-92.281z" opacity=".035"/></g></g></svg>