<svg xmlns="http://www.w3.org/2000/svg" width="46" height="60"><g fill="#4DBDDA"><path d="M33.012 33.6h-2.01a.89.89 0 0 0-.882.898.89.89 0 0 0 .882.899h2.01c.4 0 .725.33.725.739v2.253c0 2.401-1.873 4.382-4.176 4.414a4.229 4.229 0 0 1-3.78-2.256 4.812 4.812 0 0 0-4.256-2.53h-5.05c-1.79 0-3.42.97-4.257 2.53-.747 1.396-2.168 2.256-3.72 2.256H8.44c-2.304-.032-4.177-2.013-4.177-4.414v-2.253c0-.408.324-.74.725-.74h20.279a.89.89 0 0 0 .881-.898.89.89 0 0 0-.881-.898H4.987c-1.373 0-2.487 1.135-2.487 2.536v2.253c0 3.379 2.654 6.165 5.915 6.21l.084.001c2.196 0 4.209-1.217 5.267-3.192.526-.983 1.565-1.594 2.709-1.594h5.05c1.144 0 2.183.61 2.71 1.594 1.057 1.975 3.07 3.192 5.266 3.192h.084c3.261-.046 5.915-2.832 5.915-6.211v-2.253c0-1.4-1.114-2.536-2.488-2.536zM18.805 17.185C17.283 15.732 14.895 14 12.16 14c-2.735 0-5.123 1.699-6.773 3.309l-2.251-1.385a1.377 1.377 0 0 0-1.465.007 1.45 1.45 0 0 0-.667 1.336l.217 2.996-.204 2.447a1.447 1.447 0 0 0 .66 1.347 1.376 1.376 0 0 0 1.47.012l2.24-1.378C7.037 24.3 9.425 26 12.16 26c2.734 0 5.123-1.732 6.645-3.185A3.905 3.905 0 0 0 20 20c0-1.063-.436-2.09-1.195-2.815zM12.16 24.23c-2.54 0-4.863-2.048-6.022-3.269a.855.855 0 0 0-1.066-.142l-2.278 1.402.156-1.878a.906.906 0 0 0 0-.14l-.175-2.436 2.297 1.414a.85.85 0 0 0 1.066-.142c1.158-1.22 3.481-3.269 6.022-3.269.228 0 .455.018.679.048-.576 1.497-1.702 5.265.076 8.353a5.04 5.04 0 0 1-.755.059zm5.465-2.71c-.786.75-1.832 1.588-3.019 2.13-1.653-2.554-.515-6.19-.085-7.34 1.222.542 2.299 1.401 3.104 2.17.416.397.645.937.645 1.52a2.08 2.08 0 0 1-.645 1.52zM28.5 18a2.503 2.503 0 0 0-2.5 2.5c0 1.379 1.121 2.5 2.5 2.5s2.5-1.121 2.5-2.5-1.121-2.5-2.5-2.5zm0 3.337a.838.838 0 0 1 0-1.674.838.838 0 0 1 0 1.674zM33.5 8C31.57 8 30 9.57 30 11.5s1.57 3.5 3.5 3.5 3.5-1.57 3.5-3.5S35.43 8 33.5 8zm0 5.194c-.934 0-1.694-.76-1.694-1.694 0-.934.76-1.694 1.694-1.694.934 0 1.694.76 1.694 1.694 0 .934-.76 1.694-1.694 1.694zM27 0c-2.206 0-4 1.794-4 4s1.794 4 4 4 4-1.794 4-4-1.794-4-4-4zm0 6.184A2.187 2.187 0 0 1 24.816 4c0-1.204.98-2.184 2.184-2.184 1.204 0 2.184.98 2.184 2.184 0 1.204-.98 2.184-2.184 2.184z"/><path d="M43.999 12h-.939a2.005 2.005 0 0 0-2.002 2.003v38.49a2.54 2.54 0 0 1-.777 1.837 2.527 2.527 0 0 1-1.859.723c-1.368-.04-2.48-1.221-2.48-2.632v-1.7c0-.989-.803-1.793-1.791-1.793h-1.36c-.988 0-1.791.804-1.791 1.793v1.673c0 4.13 3.312 7.543 7.384 7.605L38.5 60a7.44 7.44 0 0 0 5.26-2.16A7.453 7.453 0 0 0 46 52.494v-38.49A2.005 2.005 0 0 0 43.999 12zM33.05 54.2a5.867 5.867 0 0 1-.285-1.807V50.72c0-.014.012-.026.026-.026h1.36c.014 0 .026.012.026.026v1.7c0 .34.04.673.114.993l-1.24.787zm1.392 2.306a5.902 5.902 0 0 1-.598-.719l1.19-.755c.174.236.369.454.583.651l-1.175.823zm8.08.075a5.689 5.689 0 0 1-4.111 1.652 5.58 5.58 0 0 1-2.472-.62l1.376-.963a4.292 4.292 0 0 0 4.195-1.053 4.293 4.293 0 0 0 1.313-3.103V26.286h1.412v26.208a5.698 5.698 0 0 1-1.713 4.087zm1.713-32.061h-1.412v-1.646h1.412v1.646zm0-3.412h-1.412v-7.105c0-.13.107-.237.237-.237h.938c.13 0 .237.107.237.237v7.105z"/><path d="M33.23 31H4.77C2.14 31 0 33.126 0 35.738v2.767c0 4.784 3.919 8.676 8.735 8.676a8.752 8.752 0 0 0 4.778-1.403A3.22 3.22 0 0 0 16.578 48h5.183a3.221 3.221 0 0 0 3.003-2.05 8.752 8.752 0 0 0 4.5 1.23c4.817 0 8.736-3.891 8.736-8.675v-2.767C38 33.126 35.86 31 33.23 31zM21.76 46.289h-5.183a1.491 1.491 0 0 1-1.495-1.484.91.91 0 0 0-.009-.118l-.015-.19c.423-.441.803-.93 1.134-1.464h5.614l.004-.005a8.8 8.8 0 0 0 1.444 1.778 1.49 1.49 0 0 1-1.494 1.483zm14.516-7.784c0 3.84-3.146 6.965-7.012 6.965a6.98 6.98 0 0 1-5.985-3.335 1.737 1.737 0 0 0-1.473-.813h-5.614c-.6 0-1.165.312-1.474.813a6.98 6.98 0 0 1-5.984 3.335c-3.866 0-7.012-3.125-7.012-6.965v-2.767c0-1.669 1.367-3.027 3.047-3.027h28.46c1.68 0 3.047 1.358 3.047 3.027v2.767z"/></g></svg>