<svg xmlns="http://www.w3.org/2000/svg" width="50" height="50"><g fill="#4DBDDA"><path d="M48.94 22.201a30.055 30.055 0 0 0-4.398-9.357l3.103-3.103a1.311 1.311 0 0 0 0-1.854l-5.531-5.53a1.311 1.311 0 0 0-1.854 0l-3.103 3.102a30.05 30.05 0 0 0-9.422-4.416A30.339 30.339 0 0 0 12.677.86a1.31 1.31 0 0 0-.053 2.533c6.076 1.756 11.964 4.95 17.263 9.335l-2.605 2.606a1.31 1.31 0 0 0-.014 1.838L.384 44.054a1.311 1.311 0 0 0 0 1.854l3.708 3.708a1.308 1.308 0 0 0 1.854 0L18.97 36.592a1.311 1.311 0 0 0-1.854-1.854L5.02 46.835l-1.854-1.854 25.956-25.955 1.854 1.854-8.343 8.343a1.311 1.311 0 0 0 1.854 1.854l8.343-8.344a1.307 1.307 0 0 0 1.838-.015l2.614-2.614c4.375 5.263 7.577 11.114 9.358 17.154a1.311 1.311 0 0 0 2.533-.066 30.352 30.352 0 0 0-.231-14.99zM41.188 5.137l3.677 3.677-1.933 1.933-.077-.09-.21-.243a33.083 33.083 0 0 0-.518-.584l-.138-.15a29.436 29.436 0 0 0-.283-.302l-.124-.13a29.492 29.492 0 0 0-.83-.83l-.126-.12a29.316 29.316 0 0 0-1.042-.946l-.242-.208-.087-.074 1.933-1.933zm-7.447 14.8l-3.677-3.676 1.809-1.809c.312.284.62.571.925.861l.187.18a49.493 49.493 0 0 1 1.573 1.57 48.328 48.328 0 0 1 .996 1.062l-1.813 1.813zm13.616 11.575c-2.482-5.844-6.213-11.405-10.975-16.335l-.083-.086a58.587 58.587 0 0 0-1.328-1.327l-.068-.066c-4.989-4.816-10.616-8.57-16.53-11.049A27.246 27.246 0 0 1 36.47 8.195l.03.026a27.695 27.695 0 0 1 2.044 1.72l.149.138a27.514 27.514 0 0 1 1.229 1.229l.138.15a27.626 27.626 0 0 1 1.722 2.045l.02.024a27.26 27.26 0 0 1 5.555 17.985z"/><path d="M21.97 33.207a1.516 1.516 0 0 0-.637-.954 1.493 1.493 0 0 0-.54-.224 1.481 1.481 0 0 0-1.126.224 1.43 1.43 0 0 0-.415.414 1.484 1.484 0 0 0-.224.54 1.48 1.48 0 0 0 0 .586 1.514 1.514 0 0 0 .412.768 1.518 1.518 0 0 0 1.06.44 1.483 1.483 0 0 0 .573-.116 1.486 1.486 0 0 0 .812-.812 1.51 1.51 0 0 0 .085-.866z"/></g></svg>