<svg xmlns="http://www.w3.org/2000/svg" width="49" height="67"><g fill="#4DBDDA"><path d="M11.707 31.293A1.008 1.008 0 0 0 11 31a1.003 1.003 0 0 0-.707 1.707c.186.186.444.293.707.293.263 0 .521-.107.707-.293.186-.186.293-.444.293-.707 0-.263-.107-.521-.293-.707zm10.027 11.72l-6.767-8.588c-.4-.508-1.104-.57-1.574-.138-.47.432-.526 1.192-.127 1.7l6.767 8.589c.22.28.535.424.85.424.257 0 .514-.094.724-.287.47-.432.526-1.192.127-1.7zM40.796 20H30.204c-.665 0-1.204.505-1.204 1.128v5.744c0 .623.539 1.128 1.204 1.128h10.592c.665 0 1.204-.505 1.204-1.128v-5.744c0-.623-.539-1.128-1.204-1.128zm-1.203 5.743h-8.186v-3.486h8.186v3.486z"/><path d="M29.796 20H19.204c-.665 0-1.204.505-1.204 1.128v5.744c0 .623.539 1.128 1.204 1.128h10.592c.665 0 1.204-.505 1.204-1.128v-5.744c0-.623-.539-1.128-1.204-1.128zm-1.203 5.743h-8.186v-3.486h8.186v3.486z"/><path d="M18.796 20H8.204C7.539 20 7 20.505 7 21.128v5.744C7 27.495 7.539 28 8.204 28h10.592c.665 0 1.204-.505 1.204-1.128v-5.744c0-.623-.539-1.128-1.204-1.128zm-1.203 5.743H9.407v-3.486h8.186v3.486zM40.796 0H30.204C29.539 0 29 .505 29 1.128v5.744C29 7.495 29.539 8 30.204 8h10.592C41.461 8 42 7.495 42 6.872V1.128C42 .505 41.461 0 40.796 0zm-1.203 5.743h-8.186V2.257h8.186v3.486zM40.796 14H30.204c-.665 0-1.204.505-1.204 1.128v5.744c0 .623.539 1.128 1.204 1.128h10.592c.665 0 1.204-.505 1.204-1.128v-5.744c0-.623-.539-1.128-1.204-1.128zm-1.203 5.743h-8.186v-3.486h8.186v3.486z"/><path d="M29.796 14H19.204c-.665 0-1.204.505-1.204 1.128v5.744c0 .623.539 1.128 1.204 1.128h10.592c.665 0 1.204-.505 1.204-1.128v-5.744c0-.623-.539-1.128-1.204-1.128zm-1.203 5.743h-8.186v-3.486h8.186v3.486zm20.3 6.75a1.163 1.163 0 0 0-1.057-.677H1.164c-.454 0-.866.264-1.057.677-.19.413-.124.9.17 1.246l18.2 21.447v16.647A1.167 1.167 0 0 0 19.642 67c.301 0 .597-.117.82-.338l9.717-9.656c.22-.219.344-.517.344-.828v-6.992l5.722-6.743a1.169 1.169 0 0 0-.132-1.645 1.162 1.162 0 0 0-1.64.133l-6 7.07c-.179.21-.277.479-.277.756v6.934l-7.39 7.344V48.757c0-.277-.098-.545-.277-.756L3.68 28.149h41.64l-4.862 5.729a1.169 1.169 0 0 0 .133 1.644 1.16 1.16 0 0 0 1.64-.132l6.493-7.651a1.17 1.17 0 0 0 .17-1.246z"/><path d="M38.707 37.293A1.008 1.008 0 0 0 38 37c-.263 0-.521.107-.707.293A1.008 1.008 0 0 0 37 38a1.003 1.003 0 0 0 1.707.707c.186-.186.293-.444.293-.707 0-.263-.107-.521-.293-.707z"/></g></svg>