<svg xmlns="http://www.w3.org/2000/svg" width="47" height="60"><g fill="#4DBDDA"><path d="M32.505 15.56a10.636 10.636 0 0 0 1.204-4.915C33.709 4.775 28.956 0 23.115 0 17.274 0 12.52 4.776 12.52 10.645c0 1.726.419 3.402 1.204 4.914C5.647 19.184 0 27.326 0 36.774 0 49.58 10.37 60 23.115 60S46.23 49.58 46.23 36.774c0-9.448-5.647-17.59-13.725-21.215zm-18.058-4.915c0-4.802 3.888-8.71 8.668-8.71 4.78 0 8.668 3.908 8.668 8.71 0 1.48-.39 2.908-1.095 4.19a22.993 22.993 0 0 0-1.883-.573 6.72 6.72 0 0 0 1.052-3.617c0-3.735-3.026-6.774-6.742-6.774-3.717 0-6.742 3.039-6.742 6.774 0 1.307.372 2.546 1.052 3.617-.639.164-1.266.358-1.882.574a8.667 8.667 0 0 1-1.096-4.19zm9.63 2.927c-.319-.012-.64-.024-.962-.024-.323 0-.644.012-.963.024v-1.96h1.926v1.96zm-3.852-3.895v4.059c-.233.03-.466.057-.697.093-.782-.885-1.229-1.99-1.229-3.184 0-2.668 2.16-4.839 4.816-4.839 2.655 0 4.815 2.171 4.815 4.84 0 1.193-.446 2.298-1.228 3.183-.232-.036-.465-.064-.698-.093V9.677h-5.779zm2.89 48.388c-11.684 0-21.189-9.551-21.189-21.29 0-11.74 9.505-21.291 21.189-21.291 11.683 0 21.188 9.55 21.188 21.29 0 11.74-9.505 21.29-21.188 21.29z"/><path d="M25.922 39.56l5.18 1.295 5.291-3.97-5.292-3.97-5.18 1.296a3.482 3.482 0 0 0-.132-.133l1.296-5.18-3.97-5.291-3.97 5.292 1.295 5.18a3.482 3.482 0 0 0-.132.132l-5.18-1.296-5.292 3.97 5.292 3.97 5.18-1.295c.042.046.086.089.132.132l-1.295 5.18 3.97 5.292 3.97-5.292-1.296-5.18c.045-.043.09-.087.133-.132zm-4.75-2.675c0-1.071.871-1.943 1.943-1.943 1.071 0 1.943.872 1.943 1.943a1.945 1.945 0 0 1-1.943 1.943 1.945 1.945 0 0 1-1.943-1.943zm9.502-1.86l2.48 1.86-2.48 1.86-3.792-.947c.07-.295.12-.597.12-.913 0-.316-.05-.618-.12-.912l3.792-.947zm-9.419-5.7l1.86-2.48 1.86 2.481-.948 3.793a3.81 3.81 0 0 0-.912-.12c-.316 0-.618.048-.913.12l-.947-3.793zm-5.699 9.42l-2.48-1.86 2.48-1.86 3.792.948c-.071.294-.12.596-.12.912 0 .316.049.618.12.913l-3.792.947zm9.418 5.699l-1.86 2.48-1.859-2.48.947-3.792c.295.071.597.12.913.12.316 0 .618-.049.912-.12l.947 3.792z"/><path d="M5.89 37.981h3.802v-1.93h-3.79a17.337 17.337 0 0 1 4.37-10.603l2.677 2.693 1.357-1.366-2.676-2.693a17.126 17.126 0 0 1 10.538-4.397v3.813h1.919V19.68a17.068 17.068 0 0 1 10.558 4.383l-2.697 2.713 1.357 1.366 4.072-4.097-.678-.683c-3.625-3.647-8.445-5.656-13.572-5.656-10.583 0-19.193 8.663-19.193 19.31a19.26 19.26 0 0 0 3.542 11.182l1.564-1.12a17.309 17.309 0 0 1-3.15-9.096zm32.863-12.407l-1.563 1.12a17.312 17.312 0 0 1 3.15 9.095h-3.803v1.931h3.79a17.341 17.341 0 0 1-4.37 10.603L33.28 45.63l-1.357 1.365 2.677 2.693a17.126 17.126 0 0 1-10.538 4.397v-3.813h-1.92v3.82a17.062 17.062 0 0 1-10.557-4.384l2.696-2.713-1.357-1.365-4.072 4.097.679.683c3.626 3.647 8.445 5.656 13.571 5.656 10.583 0 19.193-8.663 19.193-19.311a19.26 19.26 0 0 0-3.542-11.181z"/></g></svg>