<svg xmlns="http://www.w3.org/2000/svg" width="79" height="50"><g fill="#4DBDDA"><path d="M39.73 21.076h-.627a2.736 2.736 0 0 0-2.69-2.284c-.479 0-.938.122-1.343.353a3.525 3.525 0 0 0-5.084.38 3.512 3.512 0 0 0-1.843-.244 3.532 3.532 0 0 0-4.607-.082 5.405 5.405 0 0 0-3.3-1.114 5.4 5.4 0 0 0-2.71.723 3.54 3.54 0 0 0-2.137-.723 3.517 3.517 0 0 0-3.058 1.76 5.462 5.462 0 0 0-1.9-.341 5.48 5.48 0 0 0-4.336 2.154 2.419 2.419 0 0 0-1.022-.067 2.082 2.082 0 0 0-2.73-.024 2.45 2.45 0 1 0-.175 4.882C1.05 27.563.422 29.005.422 30.532a5.46 5.46 0 0 0 1.181 3.4 5.464 5.464 0 0 0-.272 1.712 5.466 5.466 0 0 0 4.587 5.402c.203.171.414.336.63.493v.754a3.9 3.9 0 0 0 2.075 3.446h3.617c.064-.033.127-.07.189-.106.062.037.125.072.188.106l3.619.003a3.89 3.89 0 0 0 1.35-1.18 5.773 5.773 0 0 0 2.402.522 5.725 5.725 0 0 0 2.848-.748c.368.6.888 1.082 1.5 1.404l3.617.005c.066-.035.13-.071.194-.11.06.037.122.071.184.104h3.618a3.9 3.9 0 0 0 2.074-3.446v-.155a5.479 5.479 0 0 0 2.903-5.369 3.558 3.558 0 0 0 1.156-2.621c0-.877-.328-1.726-.91-2.374a11.602 11.602 0 0 0-.062-.767h2.62c2.73 0 4.95-2.227 4.95-4.965s-2.22-4.966-4.95-4.966zM14.428 44.769a2.45 2.45 0 0 1-.873-.16c.158-.214.296-.445.408-.691a3.501 3.501 0 0 0 1.787-.208h.496c.042.036.085.07.129.104a2.46 2.46 0 0 1-1.947.955zm15.713 0a2.47 2.47 0 0 1-.87-.158 3.88 3.88 0 0 0 .706-1.686c.196-.077.388-.159.577-.246a5.452 5.452 0 0 0 2.029-.026 2.474 2.474 0 0 1-2.442 2.116zm5.625-8.88a.71.71 0 0 0-.29.701 4.051 4.051 0 0 1-3.978 4.753c-.293 0-.59-.033-.882-.098a.705.705 0 0 0-.461.054 9.857 9.857 0 0 1-1.069.443.71.71 0 0 0-.475.644 2.462 2.462 0 0 1-2.466 2.383 2.464 2.464 0 0 1-2.345-1.703.708.708 0 0 0-1.108-.337 4.334 4.334 0 0 1-2.703.936 4.366 4.366 0 0 1-2.992-1.184.706.706 0 0 0-.483-.19h-.905a.706.706 0 0 0-.287.06 2.115 2.115 0 0 1-1.573.058.705.705 0 0 0-.924.494 2.466 2.466 0 0 1-2.393 1.866 2.475 2.475 0 0 1-2.468-2.476V41.17a.71.71 0 0 0-.31-.587 10.03 10.03 0 0 1-.967-.746.707.707 0 0 0-.382-.17 4.046 4.046 0 0 1-3.558-4.023c0-.548.107-1.08.318-1.58a.71.71 0 0 0-.135-.762 4.044 4.044 0 0 1-1.093-2.77c0-1.209.533-2.346 1.463-3.12a.71.71 0 0 0 .255-.537 2.11 2.11 0 0 1 .239-.954.711.711 0 0 0-.116-.818.706.706 0 0 0-.81-.153.998.998 0 0 1-.425.095 1.03 1.03 0 1 1 .108-2.055.709.709 0 0 0 .624-.255.67.67 0 0 1 1.076.048.706.706 0 0 0 .827.265c.305-.112.632-.073.897.094a.707.707 0 0 0 .985-.237 4.059 4.059 0 0 1 3.472-1.982c.671 0 1.335.168 1.92.486a.706.706 0 0 0 1.013-.412 2.112 2.112 0 0 1 2.025-1.493c.593 0 1.144.241 1.55.678.244.262.643.3.933.09a4 4 0 0 1 2.365-.768c1.07 0 2.078.416 2.84 1.172a.706.706 0 0 0 1.052-.065 2.108 2.108 0 0 1 1.663-.808 2.12 2.12 0 0 1 1.588.717c.176.2.449.283.706.216a2.135 2.135 0 0 1 1.234.052c-.095.323-.144.66-.144.998a.708.708 0 1 0 1.414 0c0-.354.084-.69.249-1a2.119 2.119 0 0 1 3.576-.267.707.707 0 0 0 1.068.079c.249-.25.579-.387.93-.387a1.317 1.317 0 0 1 0 2.637c-.287 0-.56-.093-.791-.269a.704.704 0 0 0-1.048.226c-.128.234-.297.44-.503.613a.711.711 0 0 0-.14.93 4.046 4.046 0 0 1 .6 2.834 4.075 4.075 0 0 1-.391 1.204.711.711 0 0 0 .191.879c.319.252.501.629.501 1.033 0 .392.317.71.707.71h.144c.047.358.077.72.085 1.081a.71.71 0 0 0 .224.503c.436.408.675.96.675 1.556 0 .69-.337 1.341-.902 1.74zm3.966-6.301h-3.577a2.716 2.716 0 0 0-.538-1.039 5.45 5.45 0 0 0 .378-2c0-.864-.201-1.706-.587-2.469l.004-.004a2.734 2.734 0 0 0 3.554-1.58h.766a3.544 3.544 0 0 1 3.535 3.546 3.545 3.545 0 0 1-3.535 3.546z"/><path d="M37.766 24.468a.532.532 0 1 0 0 1.064.532.532 0 0 0 0-1.064zm-5.319 1.064c-.294 0-.532.274-.532.612v1.968c0 .338.238.611.532.611.294 0 .532-.273.532-.611v-1.968c0-.338-.239-.612-.532-.612zM28.723 44.68h3.192V49a1 1 0 0 1-1 1h-1.192a1 1 0 0 1-1-1v-4.32zm1.992 3.923v-2.701a3.094 3.094 0 0 1-.699-.001v2.702h.698zm-6.247-3.923h3.192V49a1 1 0 0 1-1 1h-1.192a1 1 0 0 1-1-1v-4.32zm1.991 3.923v-2.701a3.094 3.094 0 0 1-.698-.001v2.702h.698zM12.766 44.68h3.191V49a1 1 0 0 1-1 1h-1.191a1 1 0 0 1-1-1v-4.32zm1.991 3.923v-2.701a3.094 3.094 0 0 1-.698-.001v2.702h.698zM8.51 44.68h3.192V49a1 1 0 0 1-1 1H9.511a1 1 0 0 1-1-1v-4.32zm1.992 3.923v-2.701a3.094 3.094 0 0 1-.698-.001v2.702h.698zM45.614 2.492h.523A2.28 2.28 0 0 1 48.38.59c.398 0 .781.102 1.119.294a2.938 2.938 0 0 1 4.236.317 2.927 2.927 0 0 1 1.536-.203 2.943 2.943 0 0 1 3.84-.069A4.504 4.504 0 0 1 61.858 0a4.5 4.5 0 0 1 2.26.603A2.95 2.95 0 0 1 65.898 0c1.072 0 2.03.57 2.548 1.467a4.551 4.551 0 0 1 1.584-.285c1.418 0 2.76.677 3.613 1.795.274-.078.567-.098.852-.055a1.735 1.735 0 0 1 2.275-.02 2.042 2.042 0 1 1 .146 4.068c.93.928 1.455 2.13 1.455 3.403a4.55 4.55 0 0 1-.984 2.833c.15.458.227.937.227 1.427a4.555 4.555 0 0 1-3.823 4.501c-.17.143-.345.28-.525.411v.628a3.25 3.25 0 0 1-1.73 2.872h-3.014a3.122 3.122 0 0 1-.157-.089c-.051.031-.104.06-.157.089l-3.015.002a3.23 3.23 0 0 1-1.125-.983 4.81 4.81 0 0 1-2.002.435 4.77 4.77 0 0 1-2.374-.624c-.306.5-.74.902-1.25 1.17l-3.014.005a3.213 3.213 0 0 1-.162-.091 3.77 3.77 0 0 1-.153.086H52.1a3.25 3.25 0 0 1-1.728-2.872v-.13a4.566 4.566 0 0 1-2.42-4.473 2.965 2.965 0 0 1-.204-4.163c.01-.213.027-.426.051-.639h-2.184c-2.274 0-4.125-1.856-4.125-4.138 0-2.281 1.851-4.138 4.125-4.138zm21.087 19.745c.253 0 .498-.046.727-.133a3.23 3.23 0 0 1-.34-.577 2.917 2.917 0 0 1-1.49-.173h-.412c-.035.03-.071.058-.107.087a2.05 2.05 0 0 0 1.622.796zm-13.094 0c.252 0 .496-.046.724-.132a3.233 3.233 0 0 1-.588-1.405 9.498 9.498 0 0 1-.48-.205 4.543 4.543 0 0 1-1.691-.021 2.062 2.062 0 0 0 2.035 1.763zm-4.688-7.401c.187.132.281.36.242.585a3.376 3.376 0 0 0 3.315 3.96c.244 0 .491-.027.735-.081a.588.588 0 0 1 .384.045c.286.139.585.263.89.369.23.08.388.293.397.537a2.052 2.052 0 0 0 2.054 1.986c.892 0 1.677-.57 1.955-1.42a.59.59 0 0 1 .923-.28c.65.51 1.428.78 2.253.78.928 0 1.814-.35 2.493-.987a.589.589 0 0 1 .402-.159h.755a.6.6 0 0 1 .239.051c.41.183.882.202 1.31.048a.587.587 0 0 1 .77.412 2.055 2.055 0 0 0 4.052-.509v-.935c0-.197.097-.38.259-.49.281-.191.552-.4.805-.621a.59.59 0 0 1 .318-.142 3.372 3.372 0 0 0 2.965-3.352c0-.457-.089-.9-.265-1.317a.592.592 0 0 1 .113-.635 3.37 3.37 0 0 0 .91-2.308 3.374 3.374 0 0 0-1.219-2.6.592.592 0 0 1-.213-.448 1.758 1.758 0 0 0-.198-.795.593.593 0 0 1 .097-.682.588.588 0 0 1 .674-.128c.113.053.232.08.354.08a.858.858 0 1 0-.09-1.713.59.59 0 0 1-.52-.212.559.559 0 0 0-.896.04.589.589 0 0 1-.69.22.844.844 0 0 0-.747.08.589.589 0 0 1-.82-.198 3.382 3.382 0 0 0-2.894-1.652c-.56 0-1.113.14-1.6.405a.588.588 0 0 1-.844-.344A1.76 1.76 0 0 0 65.9 1.183c-.495 0-.954.2-1.293.564a.588.588 0 0 1-.777.076 3.333 3.333 0 0 0-1.97-.64 3.34 3.34 0 0 0-2.367.976.589.589 0 0 1-.877-.054 1.757 1.757 0 0 0-1.386-.674c-.505 0-.987.218-1.323.598a.589.589 0 0 1-.589.18 1.78 1.78 0 0 0-1.028.044c.079.269.12.549.12.83a.59.59 0 1 1-1.179 0 1.766 1.766 0 0 0-3.187-1.056.589.589 0 0 1-.89.067 1.087 1.087 0 0 0-.774-.322 1.098 1.098 0 0 0 0 2.197c.238 0 .466-.078.659-.224a.587.587 0 0 1 .873.188c.106.195.247.367.419.511a.593.593 0 0 1 .116.775 3.372 3.372 0 0 0-.499 2.362c.055.349.165.686.325 1.003a.593.593 0 0 1-.16.732c-.264.21-.416.524-.416.861a.59.59 0 0 1-.59.592h-.12a8.43 8.43 0 0 0-.07.901.592.592 0 0 1-.187.42 1.778 1.778 0 0 0 .189 2.746zm-3.305-5.25h2.981c.085-.318.237-.613.448-.866a4.542 4.542 0 0 1-.315-1.667c0-.72.168-1.422.49-2.057l-.004-.004c-.263.105-.545.16-.834.16a2.278 2.278 0 0 1-2.128-1.477h-.637a2.954 2.954 0 0 0-2.946 2.956 2.954 2.954 0 0 0 2.945 2.955z"/><path d="M47.252 5.32a.443.443 0 1 1 0 .886.443.443 0 0 1 0-.887zm4.432.886c.245 0 .444.228.444.51v1.64c0 .281-.199.51-.444.51-.244 0-.443-.229-.443-.51v-1.64c0-.282.199-.51.443-.51zm3.103 15.957h-2.66v3.433a1 1 0 0 0 1 1h.66a1 1 0 0 0 1-1v-3.433zm-1.66 3.269V23.18a2.579 2.579 0 0 0 .583-.001v2.252h-.582zm5.206-3.269h-2.66v3.433a1 1 0 0 0 1 1h.66a1 1 0 0 0 1-1v-3.433zm-1.659 3.269V23.18a2.579 2.579 0 0 0 .582-.001v2.252h-.582zm11.411-3.269h-2.66v3.433a1 1 0 0 0 1 1h.66a1 1 0 0 0 1-1v-3.433zm-1.66 3.269V23.18a2.579 2.579 0 0 0 .583-.001v2.252h-.582zm5.206-3.269h-2.66v3.433a1 1 0 0 0 1 1h.66a1 1 0 0 0 1-1v-3.433zm-1.66 3.269V23.18a2.579 2.579 0 0 0 .583-.001v2.252h-.582z"/></g></svg>