<svg xmlns="http://www.w3.org/2000/svg" width="60" height="43"><g fill="#4DBDDA"><path d="M59.026.532H35.649a.975.975 0 0 0-.974.974v23.377c0 .538.437.974.974.974h23.377a.975.975 0 0 0 .974-.974V1.506a.975.975 0 0 0-.974-.974zm-.974 23.377H36.623V2.481h21.429v21.428z"/><path d="M40.386 20.143h1.904v1.905h-2.857a.953.953 0 0 1-.952-.953v-2.857h1.905v1.905zm-28.005 9.524H.952a.953.953 0 0 0-.952.952v11.429c0 .525.427.952.952.952h11.429a.953.953 0 0 0 .952-.952V30.619a.953.953 0 0 0-.952-.952zm-.952 11.428H1.905v-9.524h9.524v9.524zm16.19-11.428H16.19a.953.953 0 0 0-.952.952v11.429c0 .525.427.952.952.952h11.43a.953.953 0 0 0 .952-.952V30.619a.953.953 0 0 0-.952-.952zm-.952 11.428h-9.524v-9.524h9.524v9.524zM12.381 14.429H.952A.953.953 0 0 0 0 15.38v11.43c0 .525.427.952.952.952h11.429a.953.953 0 0 0 .952-.952V15.38a.953.953 0 0 0-.952-.952zm-.952 11.428H1.905v-9.524h9.524v9.524zm16.19-11.428H16.19a.953.953 0 0 0-.952.952V26.81c0 .525.427.952.952.952h11.43a.953.953 0 0 0 .952-.952V15.38a.953.953 0 0 0-.952-.952zm-.952 11.428h-9.524v-9.524h9.524v9.524zm17.143 3.81H32.38a.953.953 0 0 0-.952.952v11.429c0 .525.426.952.952.952h11.43a.953.953 0 0 0 .952-.952V30.619a.953.953 0 0 0-.952-.952zm-.953 11.428h-9.524v-9.524h9.524v9.524z"/><path d="M4.762 23.952h2.857v-1.904H5.714v-1.905H3.81V23c0 .525.426.952.952.952zm0 15.238h2.857v-1.904H5.714V35.38H3.81v2.857c0 .526.426.952.952.952zM20 23.952h2.857v-1.904h-1.905v-1.905h-1.904V23c0 .525.427.952.952.952zm0 15.238h2.857v-1.904h-1.905V35.38h-1.904v2.857c0 .526.427.952.952.952zm16.19 0h2.858v-1.904h-1.905V35.38h-1.905v2.857c0 .526.427.952.952.952z"/></g></svg>