<svg xmlns="http://www.w3.org/2000/svg" width="71" height="50"><g fill="#4DBDDA" fill-rule="evenodd"><path fill-rule="nonzero" d="M57.886 15.986h-4.268l1.286-14.897c.003-.494-.24-.851-.596-1.006a2.815 2.815 0 0 0-.2-.063C53.937 0 53.925 0 53.914 0H33.589a.998.998 0 0 0-.993 1.002.999.999 0 0 0 .993 1.002h19.242l-1.976 22.895-.5 5.782H15.847l.577-6.012.192-2.004 1.22-12.69.192-2.004.573-5.967h11.016a1 1 0 0 0 .993-1.002A.999.999 0 0 0 29.617 0H17.699a.996.996 0 0 0-.97.79c-.012.075-.244 2.468-.697 7.18l-.192 2.005-1.22 12.69-.191 2.004-.664 6.91-1.026 10.688a1.441 1.441 0 0 0-.002.183c.02.143.026.162.03.18.063.2.144.334.25.443.108.1.185.154.27.196a1.6 1.6 0 0 0 .242.084c.134.019.166.02.198.02h4.423C18.638 47.108 21.81 50 25.644 50c3.832 0 7.006-2.892 7.494-6.627h15.93c.487 3.735 3.66 6.627 7.493 6.627 3.832 0 7.006-2.892 7.494-6.627h4.422c.143-.01.17-.014.194-.019a1.58 1.58 0 0 0 .177-.054c.137-.068.15-.076.164-.085.122-.092.135-.104.148-.117.103-.113.116-.131.13-.15a1.4 1.4 0 0 0 .102-.185c.048-.148.053-.164.057-.181.057-.427.834-6.722 1.182-10.792.1-1.186.165-2.174.165-2.779 0-7.182-5.792-13.025-12.91-13.025zm-4.441 2.004h4.063l-.52 6.011h-4.062l.519-6.011zm-27.8 30.006c-3.075 0-5.576-2.523-5.576-5.625s2.501-5.625 5.575-5.625c3.074 0 5.575 2.523 5.575 5.625s-2.5 5.625-5.575 5.625zm30.917 0c-3.075 0-5.575-2.523-5.575-5.625s2.5-5.625 5.575-5.625c3.074 0 5.575 2.523 5.575 5.625s-2.501 5.625-5.575 5.625zM67.6 41.369h-3.545c-.488-3.735-3.661-6.628-7.494-6.628-3.833 0-7.006 2.893-7.494 6.628h-15.93c-.488-3.735-3.661-6.628-7.494-6.628-3.833 0-7.006 2.893-7.494 6.628h-3.33l.834-8.685h35.613a.968.968 0 0 0 .099-.004l.018-.003a.987.987 0 0 0 .077-.012l.033-.008.059-.015.038-.014a.424.424 0 0 0 .05-.018l.04-.018.044-.022.04-.022a.389.389 0 0 0 .04-.025c.014-.008.026-.017.038-.026a1.003 1.003 0 0 0 .282-.314l.02-.036a.354.354 0 0 0 .023-.048c.006-.013.012-.025.017-.039.007-.015.012-.032.018-.048l.014-.043.012-.047.011-.048.008-.048c.002-.016.005-.033.006-.05l.001-.007.498-5.764h5.133c3.043 0 4.415 1.59 5.868 3.274 1.198 1.39 2.537 2.94 4.812 3.319-.29 3.082-.756 7.038-.965 8.77zm1.134-10.78c-1.475-.303-2.383-1.35-3.483-2.625-1.376-1.594-3.055-3.54-6.275-3.903l.514-5.951c5.265.786 9.32 5.374 9.32 10.902 0 .375-.028.92-.076 1.578z"/><path fill-rule="nonzero" d="M25.458 38.983a3.818 3.818 0 0 0-3.814 3.814 3.818 3.818 0 0 0 3.814 3.813 3.818 3.818 0 0 0 3.813-3.813 3.818 3.818 0 0 0-3.813-3.814zm0 5.547a1.735 1.735 0 0 1-1.734-1.733c0-.956.778-1.734 1.734-1.734s1.733.778 1.733 1.734c0 .955-.778 1.733-1.733 1.733zm31.356-5.547A3.818 3.818 0 0 0 53 42.797a3.818 3.818 0 0 0 3.814 3.813 3.818 3.818 0 0 0 3.813-3.813 3.818 3.818 0 0 0-3.813-3.814zm0 5.547a1.735 1.735 0 0 1-1.734-1.733c0-.956.778-1.734 1.734-1.734.955 0 1.733.778 1.733 1.734 0 .955-.778 1.733-1.733 1.733zM11.796 16H6.984c-.543 0-.984.38-.984.847 0 .468.44.848.984.848h4.812c.543 0 .984-.38.984-.848 0-.468-.44-.847-.984-.847zm14-7H.984C.441 9 0 9.38 0 9.847c0 .468.44.848.984.848h24.812c.543 0 .984-.38.984-.848 0-.468-.44-.847-.984-.847zm-3 13H10.984c-.543 0-.984.38-.984.847 0 .468.44.848.984.848h11.812c.543 0 .984-.38.984-.848 0-.468-.44-.847-.984-.847z"/><path d="M29.941 15.512c-.804 0-1.437.285-1.898.855-.461.57-.691 1.358-.691 2.362 0 1.05.221 1.845.665 2.384.443.54 1.085.809 1.924.809.364 0 .715-.036 1.055-.109a12.2 12.2 0 0 0 1.06-.278v1.201c-.671.254-1.433.381-2.285.381-1.253 0-2.216-.38-2.888-1.14-.672-.76-1.008-1.846-1.008-3.26 0-.89.163-1.67.49-2.338a3.492 3.492 0 0 1 1.414-1.535c.617-.356 1.342-.533 2.174-.533.875 0 1.684.183 2.426.55l-.504 1.166a7.523 7.523 0 0 0-.917-.36 3.304 3.304 0 0 0-1.017-.155zm8.9 5.162c0 .762-.275 1.36-.825 1.793-.551.433-1.31.65-2.28.65-.968 0-1.761-.15-2.379-.451v-1.324c.391.183.806.328 1.246.433.439.106.848.159 1.227.159.555 0 .964-.106 1.228-.317.263-.21.395-.494.395-.85 0-.32-.121-.591-.363-.814-.242-.223-.742-.486-1.5-.79-.781-.317-1.332-.679-1.653-1.085-.32-.406-.48-.894-.48-1.465 0-.715.254-1.277.762-1.687.508-.41 1.19-.615 2.045-.615.82 0 1.636.18 2.449.539l-.445 1.142c-.762-.32-1.442-.48-2.04-.48-.453 0-.796.098-1.03.296a.972.972 0 0 0-.352.782c0 .223.047.413.14.571.094.158.248.308.463.448.215.141.602.327 1.16.557.63.262 1.09.506 1.383.732.293.227.508.483.645.768.136.285.205.621.205 1.008zm6.54-6.24h1.453l-3 8.566h-1.477l-2.988-8.566h1.442l1.787 5.326c.093.254.193.58.298.981.106.4.174.698.206.894.05-.297.128-.64.234-1.031a12.4 12.4 0 0 1 .258-.868l1.787-5.302z"/></g></svg>